<svg id="Layer_1" data-name="Layer 1" xmlns="http://www.w3.org/2000/svg" viewBox="0 0 729.37 160.8"><defs><style>.cls-1{fill:#28a0e2;}.cls-2{fill:#2878e2;}</style></defs><path class="cls-1" d="M902.29,447.14a79.92,79.92,0,0,1,22.38,3.12,50.22,50.22,0,0,1,18.82,10,44.48,44.48,0,0,1,12.06,15.81,50,50,0,0,1,4,20.56,56.12,56.12,0,0,1-4.4,22.42,47.1,47.1,0,0,1-12.68,17.33A51.9,51.9,0,0,1,922.7,546.8a86.14,86.14,0,0,1-23.91,3.31,85,85,0,0,1-23.54-3.23,50.77,50.77,0,0,1-19.58-10.46,41.55,41.55,0,0,1-11.81-16.1,53.25,53.25,0,0,1-3.49-19.69q0-15.92,7.38-27.94t21.87-18.78Q884.13,447.13,902.29,447.14ZM901,469a28.49,28.49,0,0,0-15.11,4.11,27.2,27.2,0,0,0-10.39,11.41,34.71,34.71,0,0,0-3.63,15.66,30.18,30.18,0,0,0,3.31,14.1,23.33,23.33,0,0,0,10.06,10,30,30,0,0,0,14.32,3.6,28.19,28.19,0,0,0,14.79-4,26.17,26.17,0,0,0,10.25-11.34,34.78,34.78,0,0,0,3.52-15.3,31.77,31.77,0,0,0-3.27-14.35,23.71,23.71,0,0,0-9.59-10.21A28.1,28.1,0,0,0,901,469Z" transform="translate(-564 -418.76)"/><path class="cls-1" d="M958.17,548.22l6-10.46L1001.79,467l4-7.92q1.74-3.48,4.87-10,12.8.15,18.67.14,10.25,0,19-.14l10.6,30.3,21.57,58.28,4.21,10.61q-12.59-.15-15.28-.15-6.11,0-18,.15-3.2-12-9.21-28.2h-36.58q-6.32,12.79-13.07,28.2-13.53-.15-16.58-.15C972.31,548.07,966.36,548.12,958.17,548.22Zm56.26-49.35H1037q-8.41-25.61-9.21-28.22-4.79,10.67-8.13,17.48Z" transform="translate(-564 -418.76)"/><path class="cls-1" d="M1091.44,546.69q-.95-15.48-2.18-24.78a78.19,78.19,0,0,0,14.52,5.05,52.59,52.59,0,0,0,11.18,1.42,23.05,23.05,0,0,0,10.08-1.85c2.5-1.24,3.75-3.06,3.75-5.49a7.71,7.71,0,0,0-.36-2.36,9.38,9.38,0,0,0-1.38-2.54,20,20,0,0,0-2.91-3.09l-13.69-11.92q-4.8-4.06-6.7-5.89a43.68,43.68,0,0,1-6-6.9,23.78,23.78,0,0,1-3.13-6.5,24.29,24.29,0,0,1-1-7,25,25,0,0,1,1.56-8.68,26.57,26.57,0,0,1,4.69-8,26.93,26.93,0,0,1,8.29-6.4,37.1,37.1,0,0,1,11-3.67,73,73,0,0,1,12.14-1,139.6,139.6,0,0,1,26.74,2.83c.15,3.34.31,6.41.51,9.19s.65,7.67,1.38,14.64a66.69,66.69,0,0,0-12.21-3.74,52.09,52.09,0,0,0-9.52-1.05,18.91,18.91,0,0,0-9.41,2.11c-2.5,1.41-3.74,3.15-3.74,5.23a7.13,7.13,0,0,0,.58,2.83,12.85,12.85,0,0,0,2.18,3.23,37.88,37.88,0,0,0,4.21,4.07q2.61,2.22,8.21,6.58l5.23,4.14a66.81,66.81,0,0,1,5,4.58,50.54,50.54,0,0,1,4.65,5.3,29,29,0,0,1,3,4.8,20.86,20.86,0,0,1,1.56,4.4,21.18,21.18,0,0,1,.51,4.76,26.71,26.71,0,0,1-12,22.2,37.26,37.26,0,0,1-12.61,5.34,66.53,66.53,0,0,1-14.5,1.53Q1109.4,550.11,1091.44,546.69Z" transform="translate(-564 -418.76)"/><path class="cls-1" d="M1174.87,548.22q4.19-58.35,4.19-89.82L1179,449q12.73.15,17,.14,2,0,15.64-.14-1.32,16.35-2.12,31-1,20.34-1.46,38t-.44,30.19l-14.89-.15Q1188.38,548.07,1174.87,548.22Z" transform="translate(-564 -418.76)"/><path class="cls-1" d="M1224.57,546.69q-.94-15.48-2.18-24.78a78.19,78.19,0,0,0,14.52,5.05,52.67,52.67,0,0,0,11.18,1.42,23.05,23.05,0,0,0,10.08-1.85c2.5-1.24,3.75-3.06,3.75-5.49a7.71,7.71,0,0,0-.36-2.36,9.38,9.38,0,0,0-1.38-2.54,20,20,0,0,0-2.91-3.09l-13.69-11.92q-4.8-4.06-6.7-5.89a43.68,43.68,0,0,1-6-6.9,23.78,23.78,0,0,1-3.13-6.5,24.29,24.29,0,0,1-1-7,25,25,0,0,1,1.56-8.68,26.57,26.57,0,0,1,4.69-8,27,27,0,0,1,8.28-6.4,37.1,37.1,0,0,1,11-3.67,73,73,0,0,1,12.14-1,139.6,139.6,0,0,1,26.74,2.83c.15,3.34.31,6.41.51,9.19s.65,7.67,1.38,14.64a66.69,66.69,0,0,0-12.21-3.74,52.09,52.09,0,0,0-9.52-1.05,18.91,18.91,0,0,0-9.41,2.11c-2.5,1.41-3.74,3.15-3.74,5.23a7.13,7.13,0,0,0,.58,2.83,12.85,12.85,0,0,0,2.18,3.23,38.78,38.78,0,0,0,4.21,4.07q2.61,2.22,8.21,6.58l5.23,4.14a66.81,66.81,0,0,1,5,4.58,50.54,50.54,0,0,1,4.65,5.3,29,29,0,0,1,3,4.8,20.86,20.86,0,0,1,1.56,4.4,21.18,21.18,0,0,1,.51,4.76,26.71,26.71,0,0,1-12,22.2,37.26,37.26,0,0,1-12.61,5.34,66.53,66.53,0,0,1-14.5,1.53Q1242.53,550.11,1224.57,546.69Z" transform="translate(-564 -418.76)"/><path class="cls-1" d="M789.34,418.76h-201A24.33,24.33,0,0,0,564,443.09V555.23a24.33,24.33,0,0,0,24.33,24.33h201a24.33,24.33,0,0,0,24.33-24.33V443.09A24.33,24.33,0,0,0,789.34,418.76ZM728.51,538.84c-95.27-.11-79.19,15.77-79.34-79.35C744.43,459.6,728.35,443.72,728.51,538.84Z" transform="translate(-564 -418.76)"/><path class="cls-2" d="M900.26,450.12a79.92,79.92,0,0,1,22.38,3.12,50.22,50.22,0,0,1,18.82,10A44.48,44.48,0,0,1,953.52,479a50,50,0,0,1,4,20.56,56.12,56.12,0,0,1-4.4,22.42,47.1,47.1,0,0,1-12.68,17.33,51.9,51.9,0,0,1-19.77,10.43,86.14,86.14,0,0,1-23.91,3.31,85,85,0,0,1-23.54-3.23,50.77,50.77,0,0,1-19.58-10.46,41.55,41.55,0,0,1-11.81-16.1,53.25,53.25,0,0,1-3.49-19.69q0-15.92,7.38-27.94t21.87-18.78Q882.08,450.14,900.26,450.12ZM899,472a28.49,28.49,0,0,0-15.11,4.11,27.2,27.2,0,0,0-10.39,11.41,34.71,34.71,0,0,0-3.63,15.66,30.18,30.18,0,0,0,3.31,14.1,23.33,23.33,0,0,0,10.06,10,30,30,0,0,0,14.32,3.6,28.19,28.19,0,0,0,14.79-4,26.17,26.17,0,0,0,10.25-11.34,34.78,34.78,0,0,0,3.52-15.3,31.77,31.77,0,0,0-3.27-14.35,23.71,23.71,0,0,0-9.59-10.21A28.15,28.15,0,0,0,899,472Z" transform="translate(-564 -418.76)"/><path class="cls-2" d="M956.14,551.2l6-10.46L999.76,470l4-7.92q1.74-3.48,4.87-10,12.79.15,18.67.14,10.25,0,19-.14l10.6,30.3,21.57,58.28,4.21,10.61q-12.59-.15-15.28-.15-6.1,0-18,.15-3.2-12-9.21-28.2H1003.6q-6.32,12.79-13.07,28.2-13.53-.15-16.58-.15Q968.45,551.05,956.14,551.2Zm56.27-49.34H1035q-8.42-25.61-9.21-28.22-4.8,10.67-8.13,17.48Z" transform="translate(-564 -418.76)"/><path class="cls-2" d="M1089.42,549.67q-.95-15.48-2.18-24.78a78.19,78.19,0,0,0,14.52,5.05,52.59,52.59,0,0,0,11.18,1.42,23.05,23.05,0,0,0,10.08-1.85c2.5-1.24,3.75-3.06,3.75-5.49a7.71,7.71,0,0,0-.36-2.36,9.38,9.38,0,0,0-1.38-2.54,20,20,0,0,0-2.91-3.09l-13.69-11.92q-4.8-4.07-6.7-5.89a43.68,43.68,0,0,1-6-6.9,23.78,23.78,0,0,1-3.13-6.5,24.29,24.29,0,0,1-1-7,25,25,0,0,1,1.56-8.68,26.57,26.57,0,0,1,4.69-8,26.93,26.93,0,0,1,8.29-6.4,37.1,37.1,0,0,1,11-3.67,73,73,0,0,1,12.14-1,139.6,139.6,0,0,1,26.74,2.83c.15,3.34.31,6.41.51,9.19s.65,7.67,1.38,14.64a66.69,66.69,0,0,0-12.21-3.74,52.09,52.09,0,0,0-9.52-1.05,18.91,18.91,0,0,0-9.41,2.11c-2.5,1.41-3.74,3.15-3.74,5.23a7.13,7.13,0,0,0,.58,2.83,12.85,12.85,0,0,0,2.18,3.23,38.78,38.78,0,0,0,4.21,4.07q2.61,2.22,8.21,6.58l5.23,4.14a66.81,66.81,0,0,1,5,4.58,50.54,50.54,0,0,1,4.65,5.3,29,29,0,0,1,3,4.8,20.86,20.86,0,0,1,1.56,4.4,21.18,21.18,0,0,1,.51,4.76,26.71,26.71,0,0,1-12,22.2,37.26,37.26,0,0,1-12.61,5.34,66.53,66.53,0,0,1-14.5,1.53Q1107.37,553.09,1089.42,549.67Z" transform="translate(-564 -418.76)"/><path class="cls-2" d="M1172.84,551.2q4.19-58.35,4.19-89.82L1177,452q12.74.15,17,.14,2,0,15.64-.14-1.32,16.35-2.12,31-1,20.34-1.46,38t-.44,30.19l-14.89-.15Q1186.34,551.05,1172.84,551.2Z" transform="translate(-564 -418.76)"/><path class="cls-2" d="M1222.54,549.67q-.94-15.48-2.18-24.78a78.19,78.19,0,0,0,14.52,5.05,52.59,52.59,0,0,0,11.18,1.42,23.05,23.05,0,0,0,10.08-1.85c2.5-1.24,3.75-3.06,3.75-5.49a7.71,7.71,0,0,0-.36-2.36,9.38,9.38,0,0,0-1.38-2.54,20,20,0,0,0-2.91-3.09l-13.69-11.92q-4.8-4.07-6.7-5.89a43.68,43.68,0,0,1-6-6.9,23.78,23.78,0,0,1-3.13-6.5,24.64,24.64,0,0,1-1-7,25,25,0,0,1,1.56-8.68,26.57,26.57,0,0,1,4.69-8,26.93,26.93,0,0,1,8.29-6.4,37.1,37.1,0,0,1,11-3.67,73,73,0,0,1,12.14-1,139.6,139.6,0,0,1,26.74,2.83c.15,3.34.31,6.41.51,9.19s.65,7.67,1.38,14.64a66.69,66.69,0,0,0-12.21-3.74,52.09,52.09,0,0,0-9.52-1.05,18.91,18.91,0,0,0-9.41,2.11c-2.5,1.41-3.74,3.15-3.74,5.23a7.13,7.13,0,0,0,.58,2.83,12.85,12.85,0,0,0,2.18,3.23,37.88,37.88,0,0,0,4.21,4.07q2.61,2.22,8.21,6.58l5.23,4.14a66.81,66.81,0,0,1,5,4.58,50.54,50.54,0,0,1,4.65,5.3,29,29,0,0,1,3,4.8,20.86,20.86,0,0,1,1.56,4.4,21.18,21.18,0,0,1,.51,4.76,26.71,26.71,0,0,1-12,22.2,37.26,37.26,0,0,1-12.61,5.34,66.53,66.53,0,0,1-14.5,1.53Q1240.51,553.09,1222.54,549.67Z" transform="translate(-564 -418.76)"/></svg>